/* XPM */
static char *result[] = {
/* columns rows colors chars-per-pixel */
"65 64 2 1 ",
"  c black",
". c None",
/* pixels */
".................................................................",
".................................................................",
".................................................................",
".................................................................",
".................................................................",
".................................................................",
".................................................................",
".................................................................",
".................................................................",
".................................................................",
".................................................................",
".................................................................",
".........................                        ................",
".........................                        ................",
".........................                        ................",
".........................                        ................",
".........................                        ................",
".........................                        ................",
".........................                        ................",
".........................                        ................",
".................        ........................................",
".................        ........................................",
".................        ........................................",
".................        ........................................",
".................        ........................................",
".................        ........................................",
".................        ........................................",
".................        ........................................",
".................        ........................................",
".................        ........................................",
".................        ........................................",
".................        ........................................",
".................        ........................................",
".................        ........................................",
".................        ........................................",
".................        ........................................",
".................        ........................................",
".................        ........................................",
".................        ........................................",
".................        ........................................",
".................        ........................................",
".................        ........................................",
".................        ........................................",
".................        ........................................",
".........................                        ................",
".........................                        ................",
".........................                        ................",
".........................                        ................",
".........................                        ................",
".........................                        ................",
".........................                        ................",
".........................                        ................",
".................................................................",
".................................................................",
".................................................................",
".................................................................",
".................................................................",
".................................................................",
".................................................................",
".................................................................",
".................................................................",
".................................................................",
".................................................................",
"................................................................."
};
