/* XPM */
static char *result[] = {
/* columns rows colors chars-per-pixel */
"32 32 96 2 ",
"   c #573B27",
".  c #563C29",
"X  c #5A3E2A",
"o  c #5E432E",
"O  c #574131",
"+  c #5C4432",
"@  c #5D4836",
"#  c #5B4738",
"$  c #5D4B3C",
"%  c #614532",
"&  c #614936",
"*  c #614C3C",
"=  c #67503D",
"-  c #69503F",
";  c #5E4E41",
":  c #5F5141",
">  c #645444",
",  c #6B5443",
"<  c #635649",
"1  c #655A4C",
"2  c #6C5B4B",
"3  c #705F4E",
"4  c #655D53",
"5  c #6D5E50",
"6  c #715F51",
"7  c #72604E",
"8  c #676156",
"9  c #6C6254",
"0  c #6C645A",
"q  c #736454",
"w  c #746857",
"e  c #736659",
"r  c #746A5D",
"t  c #7B6C5C",
"y  c #4B6366",
"u  c #4D6568",
"i  c #4F6A6C",
"p  c #526667",
"a  c #556E6F",
"s  c #5B6F6E",
"d  c #5B706F",
"f  c #4A6D74",
"g  c #486F79",
"h  c #536E72",
"j  c #4E757D",
"k  c #577174",
"l  c #5D7B7E",
"z  c #676960",
"x  c #686A63",
"c  c #746E61",
"v  c #7A6E61",
"b  c #65726E",
"n  c #69746F",
"m  c #767265",
"M  c #7A7265",
"N  c #757469",
"B  c #7B7669",
"V  c #76786F",
"C  c #7D796C",
"Z  c #6A7671",
"A  c #6E7A77",
"S  c #607B7D",
"D  c #6C7E7B",
"F  c #7F7C71",
"G  c #876E60",
"H  c #896F61",
"J  c #807567",
"K  c #817769",
"L  c #817B6E",
"P  c #8D7B6F",
"I  c #827E72",
"U  c #858275",
"Y  c #898476",
"T  c #878479",
"R  c #89867A",
"E  c #8C897C",
"W  c #968679",
"Q  c #3E7786",
"!  c #4F7A84",
"~  c #447B8C",
"^  c #537982",
"/  c #5F7F82",
"(  c #637E80",
")  c #37829C",
"_  c #3B829B",
"`  c #478294",
"'  c #4B8292",
"]  c #448499",
"[  c #44889F",
"{  c #668386",
"}  c #698285",
"|  c #648389",
" . c #4189A2",
".. c #8E8C81",
"X. c #918D81",
"o. c None",
/* pixels */
"o.o.o.o.o.o.o.o.o.o.o.o.R R U v B Y U o.o.o.o.o.o.o.o.o.o.o.o.o.",
"o.o.o.o.o.o.o.o.o.o.o.& R R U K M Y R o o.o.o.o.o.o.o.o.o.o.o.o.",
"o.o.o.o.o.o.o.o.o.7 U w R R B Y C Y E 2 F 2 o.o.o.o.o.o.o.o.o.o.",
"o.o.o.o.o.o.e e U w w , R E R E E E E 7 t t L t o.o.o.o.o.o.o.o.",
"o.o.o.o.o.v Y q 9 F U U U E E E E E U B Y R M 7 B 2 o.o.o.o.o.o.",
"o.o.o.o.M R 3 U U U U U t E C F U E B U U U T T , L w o.o.o.o.o.",
"o.o.o.2 M t U U U Y Y 1 = 9 2 9 3 r 5 U R U C U U q v > o.o.o.o.",
"o.o.o.T v M U U U U 9 1   o O o @ & = N C R I I U M M T o.o.o.o.",
"o.o.M K M U T T B ; # $ 9 w w c c v g h 0 e I T F I t B v o.o.o.",
"o.o.I e T ....I # $ 0 r c r c m N c / ] N 5 4 I T I R e I o.o.o.",
"q q 6 2 9 v I $ O 0 e m m B B B B x ( V c N 5 1 B e r q 7 q q W ",
"Y I I F F I e . 8 c r : y u u p p Q f i n v V & I R I I Y U Y t ",
"U I I I I F e @ c 0 c f ` l l S S / / !  .Z V q v I I I Y Y U t ",
"T B v I U T 2 1 c Z k j l m m M M M m r Q Z v N 6 I Y Y M t U G ",
"T B v T T T 2 0 m m d ) l B N M M N m c ) Z m N e I T Y t J R t ",
"R R R Y T T 2 5 m m N _ S C B B C C M c ] N m v e Y Y R E E E t ",
"..R R R T Y 2 9 N C N l ( B C C C N B M ] m m r 9 U R R E R E t ",
"R I I L B M 2 9 C C N ^ ( N C C C C C m ] N r 0 q M v r I L I q ",
"0 1 2 & R U U M m C N j { C U C U F U m ] C r e C C U > < < 5 $ ",
"; T B 2 C U U T M C C ^ ` k k d d a a j  .N 5 F U L C 2 Y ..; $ ",
"+ M I B > T T T E w L C D | | { { ' [ { A 3 C U U T * L U F + o.",
"o.> I F 2 C R R R U 7 w C C C C B B D w 7 T T T T r > B R * o.o.",
"o.L F v 7 1 e E R U U B 7 t v t t r w B T R R E M ; 2 c B P o.o.",
"o.o.$ T U B 2 C R T U U K E R Y U U M U R R T e $ r B B X o.o.o.",
"o.o.o.M R I B , 0 L E M R Y Y Y U U Y M ..B < + r I I < o.o.o.o.",
"o.o.o.v M T T ..- 1 3 t E Y Y K L Y E w 1 : = C B L 0 6 o.o.o.o.",
"o.o.o.o.> m ..v U q & % E E Y J L E R o @ q R C I 0 . o.o.o.o.o.",
"o.o.o.o.o.e < I I R C e X.E Y E Y E E 2 U Y C r > 2 o.o.o.o.o.o.",
"o.o.o.o.o.o.o.@ 0 4 M 2 R I I L K I Y * M > = . o.o.o.o.o.o.o.o.",
"o.o.o.o.o.o.o.o., + 4 + c 0 8 8 8 4 0   > . , o.o.o.o.o.o.o.o.o.",
"o.o.o.o.o.o.o.o.o.o.o.H 0 4 4 4 4 4 8 H o.o.o.o.o.o.o.o.o.o.o.o.",
"o.o.o.o.o.o.o.o.o.o.o.o.O . O O O O O o.o.o.o.o.o.o.o.o.o.o.o.o."
};
