/* XPM */
static char *result[] = {
/* columns rows colors chars-per-pixel */
"32 32 59 1 ",
"  c #573B27",
". c #563C29",
"X c #5A3E2A",
"o c #5E432E",
"O c #574131",
"+ c #5C4432",
"@ c #5D4836",
"# c #5B4738",
"$ c #5D4B3C",
"% c #614532",
"& c #614936",
"* c #614C3C",
"= c #67503D",
"- c #69503F",
"; c #5E4E41",
": c #5F5141",
"> c #645444",
", c #6B5443",
"< c #635649",
"1 c #66594B",
"2 c #6C5B4B",
"3 c #705F4E",
"4 c #655D53",
"5 c #6D5E50",
"6 c #715F51",
"7 c #72604E",
"8 c #676156",
"9 c #6D6254",
"0 c #6D6559",
"q c #6F685B",
"w c #736454",
"e c #746857",
"r c #736659",
"t c #736A5D",
"y c #7B6C5C",
"u c #746E61",
"i c #7A6E61",
"p c #767165",
"a c #7A7265",
"s c #777369",
"d c #7B7669",
"f c #7D796C",
"g c #7F7C70",
"h c #876E60",
"j c #896F61",
"k c #807567",
"l c #817769",
"z c #817B6E",
"x c #8D7B6F",
"c c #827E72",
"v c #858275",
"b c #898476",
"n c #878479",
"m c #89867A",
"M c #8C897C",
"N c #968679",
"B c #8E8C81",
"V c #918D81",
"C c None",
/* pixels */
"CCCCCCCCCCCCmmvufbvCCCCCCCCCCCCC",
"CCCCCCCCCCC&MmblabboCCCCCCCCCCCC",
"CCCCCCCCCevembfvvmM2f2CCCCCCCCCC",
"CCCCCCrrvee7mmmMMmM7yyzyCCCCCCCC",
"CCCCCibw3gvlvMMMbmvfbba7d2CCCCCC",
"CCCCam3vvvvzabfgvMfcvvmn,zrCCCCC",
"CCC2ayvvvnM==3297t9nvnfvnep,CCCC",
"CCCniavvnv84 ooo@&=pfmcccaimCCCC",
"CCalanmbf;#*9qquup129qgvfctliCCC",
"CCcrnmBc##0quuuppuspp54nncbrcCCC",
"rw325sc$+qrpddddftsfus51drtww7wN",
"bccggcr.4qr<::=1<111ppd&cmcvvvvh",
"cccccgt@u0u1uuppppdttuswicccvvvy",
"nficvn21uu09uupppapt0usswcbbkyvh",
"naibnB<9ppt9pdddadpptuusrcbbelmy",
"mmmmnn25pps0dfdpddpuussurbmMMMMy",
"Mmmmvm29pfsqdsaffffupppt9vbmMbMy",
"mvvlfa29ffdtfffffffpupu07aatvfcw",
"011%mvgapgsefgvgcccppfutffv><28*",
"$nf1fnvnpffu9999992ess2fngf2vm;&",
"+dzf>mnnMefffgvggpagf2fnnc*fvg+C",
"C>vf2fMmmn7effdffffw7mnnbu>lm*CC",
"Cxgp31eMmvvd7iiieeefmmmms;2tfxCC",
"CC@mma1fmmvvlMbvbvdvmmnq$tfd.CCC",
"CCCpncd-0zBaMbmbbcbaBd<@ilg<CCCC",
"CCCidnmB-22eMbblzbMe2>*ffg06CCCC",
"CCCC>sBivw&%MMbkzMMo@wnac5XCCCCC",
"CCCCCr<ccmdrVMbNbMM1vvgy>2CCCCCC",
"CCCCCCC$44s3bccflcb*p>>.CCCCCCCC",
"CCCCCCCC,#4#u080480 <X-CCCCCCCCC",
"CCCCCCCCCCCj0444448jCCCCCCCCCCCC",
"CCCCCCCCCCCCX.OOOOOCCCCCCCCCCCCC"
};
