/* XPM */
static char *result[] = {
/* columns rows colors chars-per-pixel */
"32 32 86 1 ",
"  c #573B27",
". c #563C29",
"X c #5A3E2A",
"o c #5E432E",
"O c #574131",
"+ c #5C4432",
"@ c #5D4836",
"# c #5B4738",
"$ c #5D4B3C",
"% c #614532",
"& c #614936",
"* c #614C3C",
"= c #67503D",
"- c #69503F",
"; c #5E4E41",
": c #5F5141",
"> c #645444",
", c #6B5443",
"< c #635649",
"1 c #665A4C",
"2 c #6C5B4B",
"3 c #705F4E",
"4 c #655D53",
"5 c #6D5E50",
"6 c #715F51",
"7 c #72604E",
"8 c #676156",
"9 c #6C6254",
"0 c #6C645A",
"q c #736354",
"w c #746857",
"e c #736659",
"r c #7B655A",
"t c #746A5D",
"y c #7B6C5C",
"u c #746D61",
"i c #7A6E61",
"p c #767265",
"a c #7B7265",
"s c #777369",
"d c #7B7669",
"f c #7D796C",
"g c #7F7C71",
"h c #9C5751",
"j c #9A5A53",
"k c #A45C56",
"l c #AD5B57",
"z c #AA5A58",
"x c #B25C58",
"c c #81655C",
"v c #9F615A",
"b c #A3615B",
"n c #AD605B",
"m c #B6615E",
"M c #876E60",
"N c #8D6C63",
"B c #807567",
"V c #81766A",
"C c #817B6E",
"Z c #8D7B6F",
"A c #92726A",
"S c #9A736A",
"D c #827E72",
"F c #A46B65",
"G c #AA6A64",
"H c #A66E68",
"J c #B26461",
"K c #B86460",
"L c #A1726C",
"P c #AC726D",
"I c #C45C5C",
"U c #C7605F",
"Y c #D65F62",
"T c #C76564",
"R c #CD6564",
"E c #D36364",
"W c #D56568",
"Q c #858275",
"! c #898476",
"~ c #878479",
"^ c #89867A",
"/ c #8C897C",
"( c #968679",
") c #8E8C81",
"_ c #918D81",
"` c None",
/* pixels */
"````````````^!Qid!Q`````````````",
"```````````&^^QVa^^o````````````",
"`````````7Qw^^fQC!/2g2``````````",
"``````eeQww7^/^//^/7yyCy````````",
"`````a!q3QQBQ/////Qd!~p7d2``````",
"````a^3DQQQfB^CfQ/fDQ!^^,Cw`````",
"```2ay!DQQ/>*5533t5!^QfQ!wi>````",
"```~aaQQQQ04 ooo@&=pf~DgDaa~````",
"``aVd~~^d;#$00wuuuxze0gDggtfi```",
"``Ce~~)D#$0ettupauHRB54~~D~rQ```",
"qq625aD$O0eppdddgrHdua51detq7qq(",
"~QDggDe.5tw2hhjjjIzkNsd@D^DD!QQy",
"DQDDDgt@tyizTGGFFGHKEasqiDDQ!QQy",
"~diDD~21tNFlFuppsaptYNssqDQ!By^c",
"~ai~~/19ppMYFadapdauYNsaqDQ^yB/y",
"^^/~~~25ppaEFfddddauWaupq~^!///y",
"/^/!^!20fdpmLddffffpEppt9Q^//^/y",
"^QDCda29ffdGHdfffffpRpp0qpitDVD6",
"811&^QDapfdmLCCDDCCpRdttfCQ<1<8*",
"*^f1fQQ~pffJUbbbvbbmEf5fDDd2D);&",
"+dDd<!!~/wffSPPPPTRPA7fQ~D*C!gX`",
"`>Qf1f/~^Q3wffCfffSw3!~~~u>d/$``",
"`Zgi3<0)^!Qd7yiytywd^^^/a;5udZ``",
"``#~!d2d^!!QV/~!QQaQ^^^0$tddX```",
"```p~gd,0C/a^!!!QQ^y)d<@uCD<````",
"```ia/~)=13y/!^VC!/w1>*fdC06````",
"````;s)iQq&&//!BC//o&q^dD5O`````",
"`````e<DQ!fe_/!(!//1Q!ft>2``````",
"```````*84d2^DgfVD!*a>=.````````",
"````````,+4Ot008840 <.,`````````",
"```````````N0444448c````````````",
"````````````+.OOOo@`````````````"
};
