/* XPM */
static char *result[] = {
/* columns rows colors chars-per-pixel */
"32 32 84 1 ",
"  c #573B27",
". c #563C29",
"X c #5A3E2A",
"o c #5E432E",
"O c #574131",
"+ c #5C4432",
"@ c #5D4836",
"# c #5B4738",
"$ c #5D4B3C",
"% c #614532",
"& c #614936",
"* c #614C3C",
"= c #67503D",
"- c #69503F",
"; c #5E4E41",
": c #5F5141",
"> c #645444",
", c #6B5443",
"< c #635649",
"1 c #665A4C",
"2 c #6C5B4B",
"3 c #715C4D",
"4 c #655D53",
"5 c #6D5E50",
"6 c #715F51",
"7 c #72604E",
"8 c #676156",
"9 c #6C6254",
"0 c #6C645A",
"q c #736354",
"w c #746857",
"e c #736659",
"r c #7F655B",
"t c #746A5D",
"y c #7B6C5C",
"u c #746D61",
"i c #7A6E61",
"p c #767265",
"a c #7B7265",
"s c #777369",
"d c #7B7669",
"f c #7D796C",
"g c #7F7C71",
"h c #AC5A56",
"j c #B05956",
"k c #B15C58",
"l c #BD5C5A",
"z c #88655C",
"x c #AE615C",
"c c #B5605D",
"v c #876E60",
"b c #896F61",
"n c #9A6761",
"m c #976C64",
"M c #817366",
"N c #82766A",
"B c #817B6E",
"V c #8D7B6F",
"C c #9A706A",
"Z c #827E72",
"A c #AE6F6B",
"S c #B96764",
"D c #B36965",
"F c #BA6966",
"G c #B56B68",
"H c #BB6E6C",
"J c #A6706A",
"K c #C45E5D",
"L c #D95E61",
"P c #E95F64",
"I c #C46362",
"U c #C96161",
"Y c #DB6365",
"T c #E26265",
"R c #E86165",
"E c #858275",
"W c #898476",
"Q c #878479",
"! c #89867A",
"~ c #8C897C",
"^ c #968679",
"/ c #8E8C81",
"( c #918D81",
") c None",
/* pixels */
"))))))))))))!QBafWE)))))))))))))",
")))))))))))&!!QNaWWo))))))))))))",
")))))))))7Ew!WfWf~~2g2))))))))))",
"))))))eeEww7W~!~~W~7yyBy))))))))",
")))))aWq7BEdE~~~~~Bf!Qa7a3))))))",
"))))a!3ZEEEEMWfgE~fEEQQ!,Be)))))",
")))2ayEEEWW>*9557t9Q!EfEQwi>))))",
")))!aaEEEE04 oo+@&$adQEgEpi!))))",
"))addQQ!d;#$9wttuuKlq0gEfZtNi)))",
"))Zw!!/Z#$0wutuppuDTM94EQZEwE)))",
"wq338iZ$o0wpaadddvANis51deeq7qq^",
"QZZggZe.4te2hhhhhLKkmpa@Z!EEWEEy",
"ZZZZgge#tryKYSSDDSFURiseiZZZWWWr",
"QdiQZQ22umccDpppispuPmssqZQWay!y",
"QdyQQ!28ppnRDadddaauPmipqZWWeM~y",
"!!!!Q!25ppaRDfdaddauPsssqQ!~~~~y",
"~!!W!!29sdfcAdddfdfpYpptqQ!~~!~y",
"!EEBap79ffdIGdfdfffpTsp96pitZdZq",
"821@!QZapBdIHBEBEggpTdtwffE>2<5*",
"$Qf2dEZQpBdIYccxxccUTd5fEBf2Z/;$",
"+dgf>!QQ~wBfAHHHGYTHC7fQQE*dEg+)",
")>Ef2f!!!E7wdfffffJq7EQ!Qu>B!$))",
")Vfp51w~!EZdqyayttwf!!!~a;2udV))",
"))@!Qd2d!!WEN~WEEEaWW!!0$tddX)))",
")))pQZd-0B~a~!WWWE!y/a<#tBZ<))))",
")))idQ!/-16w!!WfBW~w2>*fdZ06))))",
"))))>s/iEq@%~~!NB~~o@q!dZ5X)))))",
")))))e<ZZWfe^~W^W!~1EQBt>2))))))",
")))))))$84d5!ZZfNZE*a<>.))))))))",
")))))))),+4+u088880 >.-)))))))))",
")))))))))))b0144448b))))))))))))",
"))))))))))))OXOOOO+)))))))))))))"
};
