/* XPM */
static char *result[] = {
/* columns rows colors chars-per-pixel */
"32 32 83 1 ",
"  c #573B27",
". c #563C29",
"X c #5A3E2A",
"o c #5E432E",
"O c #574131",
"+ c #5C4432",
"@ c #5D4836",
"# c #5B4738",
"$ c #5D4B3C",
"% c #614532",
"& c #614936",
"* c #614C3C",
"= c #67503D",
"- c #69503F",
"; c #5E4E41",
": c #5F5141",
"> c #645444",
", c #6B5443",
"< c #635649",
"1 c #665A4C",
"2 c #6C5B4B",
"3 c #705F4E",
"4 c #655D53",
"5 c #6D5E50",
"6 c #715F51",
"7 c #72604E",
"8 c #676156",
"9 c #6C6254",
"0 c #6C645A",
"q c #736354",
"w c #746857",
"e c #736659",
"r c #79655B",
"t c #746A5D",
"y c #7B6C5C",
"u c #746D61",
"i c #7A6E61",
"p c #767265",
"a c #7A7265",
"s c #777369",
"d c #7B7669",
"f c #7D796C",
"g c #7F7C71",
"h c #84564C",
"j c #82584F",
"k c #855A51",
"l c #8E5A53",
"z c #935A53",
"x c #A15A56",
"c c #8B6155",
"v c #8C6459",
"b c #846A5F",
"n c #95645B",
"m c #99665D",
"M c #A7625B",
"N c #B4635E",
"B c #846E63",
"V c #896F61",
"C c #9A6660",
"Z c #926D64",
"A c #9B6962",
"S c #807567",
"D c #83766A",
"F c #8D756C",
"G c #817B6E",
"H c #8D7B6F",
"J c #967067",
"K c #94746C",
"L c #9B756D",
"P c #827E72",
"I c #AD6963",
"U c #B46460",
"Y c #B06A65",
"T c #B66B69",
"R c #858275",
"E c #898476",
"W c #878479",
"Q c #89867A",
"! c #8C897C",
"~ c #968679",
"^ c #8E8C81",
"/ c #918D81",
"( c None",
/* pixels */
"((((((((((((QWRidER(((((((((((((",
"(((((((((((&QQRGaEEo((((((((((((",
"(((((((((7RwQEfRGE!2g2((((((((((",
"((((((eeRww7E!Q!!!!7yyGy((((((((",
"(((((aEq3gRSR!!!!!RdWQa7a3((((((",
"((((aQ3PRRRRaEGfR!SRRWWW,Pq(((((",
"(((2ayEPREE<=9593t9WWRfRWqa>((((",
"(((WaaRRRR01 ooo@&*pdQRgRaiQ((((",
"((aDaWQQs;#$9wttuuzzq0gRfgtDa(((",
"((GeQQ^P#$0ttuupauZYiq4RWPWeP(((",
"qq625aP$+0wpppddgrFdps91feeq7qq~",
"WRPggPe.4tw<hhjhkxzkBps&PQPREERy",
"PRPPgPt@twtlIZZJVZKCUusqiPPPRRRy",
"WdiPRW21tSvnVppaaaiuUBssqPEESyQb",
"WaiWWQ19ppbNZasdadsuUBusqPRQySEy",
"QQ!WWW25pppNJfssdsauIasieWQQ!!!y",
"!QQQWW29pfsmFdddffdpIppt9R!!!W!y",
"QRRGaa39ffsmKdffffGpIsp0qaiePfP6",
"811&QRPdpgdmKRRfGRgpIdteffR><<5*",
"$Wd2fWRRaffmMccvcccmTd3fPPf2R^;*",
"+dGf>WWW!wgfHLLLKIYLD7fRWP*GRgX(",
"(>Rf2f!WWR3wffffffFw7QWQWu>a!*((",
"(Fga31w!WERd7yiyttwdQQQQs;2ufH((",
"((#WWa2d!WRRD!ERRRaEWQQ0$rff.(((",
"(((pWPd-eG!a!QQEEREy/s1@uGP<((((",
"(((isQQ^=13eEQEGGQ!w2>$ffG06((((",
"((((>a^iRq&%!!ESG!!o@qQaP0X(((((",
"(((((e<PPQfe/!E~EQ!1RWGt:2((((((",
"((((((($04a1WPgfGPR*a>>.((((((((",
"((((((((,+4#t000940 >.-(((((((((",
"(((((((((((V0414488b((((((((((((",
"((((((((((((O.OOOO+((((((((((((("
};
