/* XPM */
static char *result[] = {
/* columns rows colors chars-per-pixel */
"32 32 99 2 ",
"   c #573B27",
".  c #563C29",
"X  c #5A3E2A",
"o  c #5E432E",
"O  c #574131",
"+  c #5C4432",
"@  c #5D4836",
"#  c #5B4738",
"$  c #5D4B3C",
"%  c #614532",
"&  c #614936",
"*  c #614C3C",
"=  c #67503D",
"-  c #69503F",
";  c #3C707F",
":  c #5E4E41",
">  c #5F5141",
",  c #5E5D54",
"<  c #645444",
"1  c #6B5443",
"2  c #635649",
"3  c #665A4C",
"4  c #6C5B4B",
"5  c #705F4E",
"6  c #655D53",
"7  c #6D5E50",
"8  c #715F51",
"9  c #72604E",
"0  c #676156",
"q  c #6C6254",
"w  c #6C645A",
"e  c #736454",
"r  c #746857",
"t  c #736659",
"y  c #746A5D",
"u  c #7B6C5C",
"i  c #43717D",
"p  c #5B767A",
"a  c #5F7879",
"s  c #636C65",
"d  c #6F6F64",
"f  c #616D6B",
"g  c #746D61",
"h  c #7A6E61",
"j  c #6F756C",
"k  c #767265",
"l  c #7A7265",
"z  c #74746A",
"x  c #7B7669",
"c  c #7D796C",
"v  c #617A7B",
"b  c #727A73",
"n  c #7F7C71",
"m  c #876E60",
"M  c #896F61",
"N  c #807567",
"B  c #817769",
"V  c #817B6E",
"C  c #8D7B6F",
"Z  c #827E72",
"A  c #858275",
"S  c #898476",
"D  c #878479",
"F  c #89867A",
"G  c #8C897C",
"H  c #968679",
"J  c #3E7181",
"K  c #37798F",
"L  c #3F798B",
"P  c #337D97",
"I  c #3A7C93",
"U  c #407485",
"Y  c #437986",
"T  c #4A7984",
"R  c #447B8A",
"E  c #647D81",
"W  c #3C829B",
"Q  c #1E91BB",
"!  c #2785A9",
"~  c #2A8AAC",
"^  c #328DAD",
"/  c #2D8EB1",
"(  c #2791B7",
")  c #2A90B6",
"_  c #2192BD",
"`  c #2893BB",
"'  c #4F818E",
"]  c #54838E",
"[  c #5E8288",
"{  c #4B8393",
"}  c #40859C",
"|  c #4F8B9B",
" . c #518492",
".. c #5A8691",
"X. c #558997",
"o. c #508A9B",
"O. c #8E8C81",
"+. c #918D81",
"@. c None",
/* pixels */
"@.@.@.@.@.@.@.@.@.@.@.@.F F A h x S A @.@.@.@.@.@.@.@.@.@.@.@.@.",
"@.@.@.@.@.@.@.@.@.@.@.& F F A B l S G o @.@.@.@.@.@.@.@.@.@.@.@.",
"@.@.@.@.@.@.@.@.@.9 A r F F x S c G G 4 c 5 @.@.@.@.@.@.@.@.@.@.",
"@.@.@.@.@.@.t t A r r 4 F G F G G S G 5 h u V u @.@.@.@.@.@.@.@.",
"@.@.@.@.@.h S e q V A A A G S G G G A x F F l 9 x 4 @.@.@.@.@.@.",
"@.@.@.@.l F 5 A A A A V u G n n A G x Z A S D D 1 V r @.@.@.@.@.",
"@.@.@.4 l u A A A S G = = q q 7 5 y 7 D S D c A S t k 1 @.@.@.@.",
"@.@.@.D h l A A A A 0 3 O o o o @ & = k x D Z Z Z k h D @.@.@.@.",
"@.@.l B x D D S x : # $ q r y y h g P R w w n Z V Z y B l @.@.@.",
"@.@.Z t D F O.Z # $ w y y y d k k g { ) z 7 6 D D Z D t Z @.@.@.",
"e e 8 4 7 l Z $ + w t g l x x c x f ] b k z 7 3 x t t e 9 e e H ",
"S Z Z n n Z t . 6 y t , ; ; ; ; U ! I U v k x & Z F A Z S A A u ",
"A Z Z Z Z n y # g s s K ~ ' { ' ] { { ^ _ z z e h Z Z Z S S Z m ",
"D x h Z Z D 4 3 g a ' W ' k l l k k l y Q v h z 8 Z S S N u S u ",
"D x g S D O.2 q d k p Q { x x k k x l u _ v k z t Z S S y N F u ",
"F F G S D F 4 7 k k z Q  .c l l x x l y ( z k h t S F F G G G u ",
"G F F F S S 4 q k c x W { c x x c c c k ( l k y e S F G G F G u ",
"F A A B x k 5 q c n k W  .x c c c c c k ( k g w 5 k l t Z B Z e ",
"w 3 3 & F A Z k k n k W X.n Z V Z n n l ( x g t c c A 2 2 4 6 * ",
"$ D c 3 c S D D l c c W ! ' R T i Y Y W _ x 4 c A n c 4 D F * * ",
"+ x n x < D D D G r c c ..o.o.X.X.^ ( | E 5 c D D A * c A n + @.",
"@.< Z Z 4 c G D F A 5 r c c c c c n [ e 5 F F D S g < x F $ @.@.",
"@.C c k 5 2 r G F A A x 9 u k u u y r x D G D G x $ 4 g x C @.@.",
"@.@.# F S x 4 x F F A S B G S S S A x S F D D w $ y x x X @.@.@.",
"@.@.@.k D Z x - w Z G l S S S S S A S l O.x 2 @ g V Z 2 @.@.@.@.",
"@.@.@.h x D F O.- 3 5 y G G S B V A G r 4 < * c x V w 8 @.@.@.@.",
"@.@.@.@.: x O.h A e & % G G S B V G G o @ e F x Z 6 + @.@.@.@.@.",
"@.@.@.@.@.t 2 Z Z S c t H G S G S F G 3 Z S c y < 4 @.@.@.@.@.@.",
"@.@.@.@.@.@.@.* w 6 z 4 D Z Z c V Z A * l < = . @.@.@.@.@.@.@.@.",
"@.@.@.@.@.@.@.@.1 + 6 + g w w w q 6 w   < . 1 @.@.@.@.@.@.@.@.@.",
"@.@.@.@.@.@.@.@.@.@.@.M w 3 6 6 6 6 q m @.@.@.@.@.@.@.@.@.@.@.@.",
"@.@.@.@.@.@.@.@.@.@.@.@.+ . O O O O O @.@.@.@.@.@.@.@.@.@.@.@.@."
};
