/* XPM */
static char *result[] = {
/* columns rows colors chars-per-pixel */
"32 32 93 2 ",
"   c #573B27",
".  c #563C29",
"X  c #5A3E2A",
"o  c #5E432E",
"O  c #574131",
"+  c #5C4432",
"@  c #5D4836",
"#  c #5B4738",
"$  c #5D4B3C",
"%  c #614532",
"&  c #614936",
"*  c #614C3C",
"=  c #67503D",
"-  c #69503F",
";  c #5E4E41",
":  c #5F5141",
">  c #5B5E57",
",  c #645444",
"<  c #6B5443",
"1  c #635649",
"2  c #665A4C",
"3  c #6C5B4B",
"4  c #705F4E",
"5  c #655D53",
"6  c #6D5E50",
"7  c #715F51",
"8  c #72604E",
"9  c #676156",
"0  c #6C6254",
"q  c #6C655A",
"w  c #736454",
"e  c #746857",
"r  c #736659",
"t  c #746A5D",
"y  c #7B6C5C",
"u  c #5F6E6A",
"i  c #5B7072",
"p  c #6E6F66",
"a  c #746D61",
"s  c #7A6E61",
"d  c #6C766F",
"f  c #767265",
"g  c #7A7265",
"h  c #73746B",
"j  c #7B7669",
"k  c #7D796C",
"l  c #6F7B75",
"z  c #7F7C71",
"x  c #876E60",
"c  c #896F61",
"v  c #807567",
"b  c #817769",
"n  c #817B6E",
"m  c #8D7B6F",
"M  c #827E72",
"N  c #858275",
"B  c #898476",
"V  c #878479",
"C  c #89867A",
"Z  c #8C897C",
"A  c #968679",
"S  c #38798D",
"D  c #327B94",
"F  c #3E7F93",
"G  c #567B83",
"H  c #5A7D83",
"J  c #34829D",
"K  c #39819A",
"L  c #1A8FBD",
"P  c #1B91BE",
"I  c #2B84A4",
"U  c #2587AB",
"Y  c #2C8AAC",
"T  c #3C89A2",
"R  c #308AAB",
"E  c #2B8DB0",
"W  c #5B8189",
"Q  c #42879D",
"!  c #4B879A",
"~  c #44899F",
"^  c #4E899C",
"/  c #548692",
"(  c #478CA4",
")  c #418EA9",
"_  c #1E94C2",
"`  c #1397CC",
"'  c #1A96C8",
"]  c #1298CE",
"[  c #1898CB",
"{  c #2194C0",
"}  c #8E8C81",
"|  c #918D81",
" . c None",
/* pixels */
" . . . . . . . . . . . .Z V N y j B N  . . . . . . . . . . . . .",
" . . . . . . . . . . .& Z V B k j B C o  . . . . . . . . . . . .",
" . . . . . . . . .e M e C C k B N C C 3 z 3  . . . . . . . . . .",
" . . . . . .r r n e y 8 C C C Z B C Z 8 y y n y  . . . . . . . .",
" . . . . .s B w 4 z N b N Z Z Z Z B N k N N g 8 g 4  . . . . . .",
" . . . .g C 4 N N N N n g B k k B Z k N N B V V < M w  . . . . .",
" . . .3 g y N N N B Z , = 3 0 0 4 t 0 N V N k N V w g ,  . . . .",
" . . .V s g N N N N 0 2 O o o o @ & = f k V N z N g s C  . . . .",
" . .g b j V V B j ; # $ 0 e e t a a E D q a M M k z t b s  . . .",
" . .M r V C } M # $ q t a t p f f a ( ' d 6 5 M V M B r M  . . .",
"w w 7 3 6 g M $ + q r a a f g g k i ! l a h 6 5 j r t w w w w A ",
"B M M z z M r . 5 t r > S D K K S _ I D G f j & M C M N m N B y ",
"N M M M M z t # t u p I P T T Q K T T E ] h h 7 s M M M N B N y ",
"V j s M M V 3 2 t W J U Q f f f g g h a ] H f g w M B B g g N x ",
"V j a B V } 1 0 p f i ] Q j f j f j g a ] H f f r M B B e v C y ",
"C C Z B V C 3 6 f f l ] ~ k j j j j g a [ h f a r B B Z Z Z Z y ",
"Z Z Z Z V N 3 0 f k f Y ~ j j j k k j f ' f f t 0 N C Z Z C Z y ",
"V M M b k g 4 0 k k j R ~ j j j k k k f ' f f 0 0 g s t M k M 7 ",
"9 2 2 % Z N z j f z j R ( z n N z z N a ' j f r n k N < 1 3 9 * ",
"$ V k 2 k N N V j k k R P K K K K K K Y ] j 3 n N z j 3 N C ; * ",
"@ j n j , V N V Z w k k ^ ) ) ( ( P [ ) W 4 k N V N * k V z +  .",
" ., M M 3 k Z V V N 8 e j k k k g N / 8 8 N V V B a , j V *  . .",
" .m k g 4 2 e Z C B N j 8 s y s y e w k Z Z V Z g ; 3 a j m  . .",
" . .# V V j 3 j C V B N b Z Z N B B j N V V V q $ t j j X  . . .",
" . . .f V M j < q M Z g Z B B B B M Z y } j 1 + a n M 1  . . . .",
" . . .s g C V } = 2 4 e Z B B b n B Z e 2 , * k j n 9 7  . . . .",
" . . . ., f } s N w & % Z Z B v n Z Z o @ w Z j M 6 O  . . . . .",
" . . . . .r 1 M M C k r | Z B A B Z Z 2 N B n t , 3  . . . . . .",
" . . . . . . .$ 9 5 j 3 C M z z b M B * j , : .  . . . . . . . .",
" . . . . . . . .< + 5 + a q 9 9 5 5 q   , X -  . . . . . . . . .",
" . . . . . . . . . . .c q 5 5 5 5 9 9 c  . . . . . . . . . . . .",
" . . . . . . . . . . . .+ . O O O . +  . . . . . . . . . . . . ."
};
